<svg xmlns="http://www.w3.org/2000/svg" xmlns:xlink="http://www.w3.org/1999/xlink" width="2000" zoomAndPan="magnify" viewBox="0 0 1500 1499.999933" height="2000" preserveAspectRatio="xMidYMid meet" version="1.0"><defs><g/><clipPath id="eac80f9033"><path d="M 450 540.375 L 1050 540.375 L 1050 959.625 L 450 959.625 Z M 450 540.375 " clip-rule="nonzero"/></clipPath></defs><g clip-path="url(#eac80f9033)"><path fill="#f4e4c1" d="M 450.308594 540.378906 L 450.308594 959.621094 L 1049.691406 959.621094 L 1049.691406 540.378906 Z M 979.328125 554.746094 L 1011.4375 554.746094 L 1011.4375 580.589844 L 979.328125 580.589844 Z M 925.21875 554.746094 L 957.324219 554.746094 L 957.324219 580.589844 L 925.21875 580.589844 Z M 871.105469 554.746094 L 903.214844 554.746094 L 903.214844 580.589844 L 871.105469 580.589844 Z M 816.996094 554.746094 L 849.097656 554.746094 L 849.097656 580.589844 L 816.996094 580.589844 Z M 762.882812 554.746094 L 794.992188 554.746094 L 794.992188 580.589844 L 762.882812 580.589844 Z M 708.773438 554.746094 L 740.882812 554.746094 L 740.882812 580.589844 L 708.773438 580.589844 Z M 654.660156 554.746094 L 686.769531 554.746094 L 686.769531 580.589844 L 654.660156 580.589844 Z M 600.550781 554.746094 L 632.660156 554.746094 L 632.660156 580.589844 L 600.554688 580.589844 Z M 546.4375 554.746094 L 578.546875 554.746094 L 578.546875 580.589844 L 546.4375 580.589844 Z M 492.328125 554.746094 L 524.429688 554.746094 L 524.429688 580.589844 L 492.328125 580.589844 Z M 524.429688 945.320312 L 492.328125 945.320312 L 492.328125 919.472656 L 524.429688 919.472656 Z M 578.542969 945.320312 L 546.4375 945.320312 L 546.4375 919.472656 L 578.546875 919.472656 Z M 632.65625 945.320312 L 600.554688 945.320312 L 600.554688 919.472656 L 632.660156 919.472656 Z M 686.765625 945.320312 L 654.660156 945.320312 L 654.660156 919.472656 L 686.769531 919.472656 Z M 740.878906 945.320312 L 708.773438 945.320312 L 708.773438 919.472656 L 740.882812 919.472656 Z M 794.988281 945.320312 L 762.882812 945.320312 L 762.882812 919.472656 L 794.992188 919.472656 Z M 849.101562 945.320312 L 816.996094 945.320312 L 816.996094 919.472656 L 849.097656 919.472656 Z M 903.210938 945.320312 L 871.105469 945.320312 L 871.105469 919.472656 L 903.214844 919.472656 Z M 957.320312 945.320312 L 925.21875 945.320312 L 925.21875 919.472656 L 957.328125 919.472656 Z M 1011.433594 945.320312 L 979.328125 945.320312 L 979.328125 919.472656 L 1011.4375 919.472656 Z M 1017.425781 904.5625 L 482.566406 904.5625 L 482.566406 595.4375 L 1017.433594 595.4375 Z M 1017.425781 904.5625 " fill-opacity="1" fill-rule="nonzero"/></g><path fill="#d4af37" d="M 460.828125 578.960938 L 460.828125 557.839844 C 460.828125 557.582031 460.875 557.335938 460.972656 557.097656 C 461.070312 556.859375 461.210938 556.652344 461.394531 556.46875 C 461.574219 556.289062 461.785156 556.148438 462.019531 556.050781 C 462.257812 555.949219 462.503906 555.902344 462.761719 555.902344 C 463.019531 555.902344 463.265625 555.949219 463.503906 556.050781 C 463.742188 556.148438 463.949219 556.289062 464.132812 556.46875 C 464.3125 556.652344 464.453125 556.859375 464.550781 557.097656 C 464.648438 557.335938 464.699219 557.582031 464.699219 557.839844 L 464.699219 578.960938 C 464.699219 579.21875 464.648438 579.464844 464.550781 579.703125 C 464.453125 579.941406 464.3125 580.148438 464.132812 580.332031 C 463.949219 580.511719 463.742188 580.652344 463.503906 580.75 C 463.265625 580.847656 463.019531 580.898438 462.761719 580.898438 C 462.503906 580.898438 462.257812 580.847656 462.019531 580.75 C 461.785156 580.652344 461.574219 580.511719 461.394531 580.332031 C 461.210938 580.148438 461.070312 579.941406 460.972656 579.703125 C 460.875 579.464844 460.828125 579.21875 460.828125 578.960938 Z M 460.828125 578.960938 " fill-opacity="1" fill-rule="nonzero"/><path fill="#d4af37" d="M 469.242188 578.960938 L 469.242188 557.839844 C 469.246094 557.582031 469.292969 557.335938 469.390625 557.097656 C 469.488281 556.863281 469.628906 556.652344 469.8125 556.472656 C 469.992188 556.289062 470.203125 556.148438 470.441406 556.050781 C 470.675781 555.953125 470.921875 555.90625 471.179688 555.90625 C 471.4375 555.90625 471.683594 555.953125 471.921875 556.050781 C 472.15625 556.148438 472.367188 556.289062 472.546875 556.472656 C 472.730469 556.652344 472.871094 556.863281 472.96875 557.097656 C 473.066406 557.335938 473.117188 557.582031 473.117188 557.839844 L 473.117188 578.960938 C 473.117188 579.21875 473.066406 579.464844 472.96875 579.703125 C 472.871094 579.941406 472.730469 580.148438 472.550781 580.332031 C 472.367188 580.511719 472.160156 580.652344 471.921875 580.75 C 471.683594 580.851562 471.4375 580.898438 471.179688 580.898438 C 470.921875 580.898438 470.675781 580.851562 470.4375 580.75 C 470.203125 580.652344 469.992188 580.511719 469.808594 580.332031 C 469.628906 580.148438 469.488281 579.941406 469.390625 579.703125 C 469.292969 579.464844 469.242188 579.21875 469.242188 578.960938 Z M 469.242188 578.960938 " fill-opacity="1" fill-rule="nonzero"/><path fill="#d4af37" d="M 1027.6875 945.320312 L 1027.6875 924.195312 C 1027.6875 923.9375 1027.734375 923.691406 1027.832031 923.453125 C 1027.929688 923.210938 1028.070312 923.003906 1028.25 922.820312 C 1028.433594 922.636719 1028.640625 922.496094 1028.878906 922.398438 C 1029.117188 922.296875 1029.367188 922.25 1029.625 922.25 C 1029.878906 922.25 1030.128906 922.296875 1030.367188 922.398438 C 1030.605469 922.496094 1030.8125 922.636719 1030.996094 922.820312 C 1031.175781 923.003906 1031.316406 923.210938 1031.414062 923.453125 C 1031.511719 923.691406 1031.5625 923.9375 1031.558594 924.195312 L 1031.558594 945.320312 C 1031.558594 945.574219 1031.507812 945.820312 1031.410156 946.058594 C 1031.308594 946.292969 1031.167969 946.5 1030.988281 946.679688 C 1030.808594 946.863281 1030.597656 947 1030.363281 947.097656 C 1030.125 947.195312 1029.878906 947.246094 1029.625 947.246094 C 1029.367188 947.246094 1029.121094 947.195312 1028.882812 947.097656 C 1028.648438 947 1028.4375 946.863281 1028.257812 946.679688 C 1028.078125 946.5 1027.9375 946.292969 1027.835938 946.058594 C 1027.738281 945.820312 1027.6875 945.574219 1027.6875 945.320312 Z M 1027.6875 945.320312 " fill-opacity="1" fill-rule="nonzero"/><path fill="#d4af37" d="M 1036.105469 945.320312 L 1036.105469 924.195312 C 1036.113281 923.945312 1036.167969 923.703125 1036.269531 923.472656 C 1036.375 923.242188 1036.515625 923.039062 1036.695312 922.867188 C 1036.875 922.691406 1037.082031 922.554688 1037.316406 922.460938 C 1037.550781 922.367188 1037.792969 922.320312 1038.042969 922.320312 C 1038.296875 922.320312 1038.539062 922.367188 1038.769531 922.460938 C 1039.003906 922.554688 1039.210938 922.691406 1039.390625 922.867188 C 1039.574219 923.039062 1039.714844 923.242188 1039.816406 923.472656 C 1039.917969 923.703125 1039.972656 923.945312 1039.980469 924.195312 L 1039.980469 945.320312 C 1039.972656 945.570312 1039.917969 945.8125 1039.816406 946.042969 C 1039.714844 946.273438 1039.574219 946.472656 1039.390625 946.648438 C 1039.210938 946.824219 1039.003906 946.960938 1038.769531 947.054688 C 1038.539062 947.148438 1038.296875 947.195312 1038.042969 947.195312 C 1037.792969 947.195312 1037.550781 947.148438 1037.316406 947.054688 C 1037.082031 946.960938 1036.875 946.824219 1036.695312 946.648438 C 1036.515625 946.472656 1036.375 946.273438 1036.269531 946.042969 C 1036.167969 945.8125 1036.113281 945.570312 1036.105469 945.320312 Z M 1036.105469 945.320312 " fill-opacity="1" fill-rule="nonzero"/><g fill="#d4af37" fill-opacity="1"><g transform="translate(537.955347, 806.249911)"><g><path d="M 12.421875 -170.828125 L 73.5 -170.828125 C 89.925781 -170.828125 103.316406 -166.441406 113.671875 -157.671875 C 124.023438 -148.910156 129.203125 -136.382812 129.203125 -120.09375 C 129.203125 -107.53125 126.0625 -97.003906 119.78125 -88.515625 C 113.5 -80.023438 104.976562 -74.054688 94.21875 -70.609375 L 153.015625 0 L 103.53125 0 L 51.34375 -67.5 L 51.34375 0 L 12.421875 0 Z M 51.34375 -95.046875 L 55.90625 -95.046875 C 59.5 -95.046875 62.535156 -95.113281 65.015625 -95.25 C 67.503906 -95.382812 70.332031 -95.863281 73.5 -96.6875 C 76.675781 -97.519531 79.226562 -98.695312 81.15625 -100.21875 C 83.09375 -101.738281 84.75 -103.945312 86.125 -106.84375 C 87.507812 -109.738281 88.203125 -113.253906 88.203125 -117.390625 C 88.203125 -121.535156 87.507812 -125.054688 86.125 -127.953125 C 84.75 -130.859375 83.09375 -133.070312 81.15625 -134.59375 C 79.226562 -136.113281 76.675781 -137.285156 73.5 -138.109375 C 70.332031 -138.941406 67.503906 -139.425781 65.015625 -139.5625 C 62.535156 -139.695312 59.5 -139.765625 55.90625 -139.765625 L 51.34375 -139.765625 Z M 51.34375 -95.046875 "/></g></g></g><g fill="#d4af37" fill-opacity="1"><g transform="translate(674.412547, 806.249911)"><g><path d="M 119.890625 -48.03125 L 42.859375 -48.03125 C 42.859375 -40.582031 45.273438 -35.0625 50.109375 -31.46875 C 54.941406 -27.882812 60.1875 -26.09375 65.84375 -26.09375 C 71.78125 -26.09375 76.472656 -26.882812 79.921875 -28.46875 C 83.378906 -30.0625 87.316406 -33.203125 91.734375 -37.890625 L 118.234375 -24.640625 C 107.191406 -6.140625 88.832031 3.109375 63.15625 3.109375 C 47.144531 3.109375 33.410156 -2.375 21.953125 -13.34375 C 10.492188 -24.320312 4.765625 -37.539062 4.765625 -53 C 4.765625 -68.46875 10.492188 -81.722656 21.953125 -92.765625 C 33.410156 -103.804688 47.144531 -109.328125 63.15625 -109.328125 C 80 -109.328125 93.695312 -104.460938 104.25 -94.734375 C 114.8125 -85.003906 120.09375 -71.097656 120.09375 -53.015625 C 120.09375 -50.523438 120.023438 -48.863281 119.890625 -48.03125 Z M 43.890625 -68.328125 L 84.28125 -68.328125 C 83.445312 -73.847656 81.269531 -78.09375 77.75 -81.0625 C 74.226562 -84.03125 69.707031 -85.515625 64.1875 -85.515625 C 58.113281 -85.515625 53.28125 -83.925781 49.6875 -80.75 C 46.101562 -77.570312 44.171875 -73.429688 43.890625 -68.328125 Z M 43.890625 -68.328125 "/></g></g></g><g fill="#d4af37" fill-opacity="1"><g transform="translate(787.471135, 806.249911)"><g><path d="M 119.890625 -48.03125 L 42.859375 -48.03125 C 42.859375 -40.582031 45.273438 -35.0625 50.109375 -31.46875 C 54.941406 -27.882812 60.1875 -26.09375 65.84375 -26.09375 C 71.78125 -26.09375 76.472656 -26.882812 79.921875 -28.46875 C 83.378906 -30.0625 87.316406 -33.203125 91.734375 -37.890625 L 118.234375 -24.640625 C 107.191406 -6.140625 88.832031 3.109375 63.15625 3.109375 C 47.144531 3.109375 33.410156 -2.375 21.953125 -13.34375 C 10.492188 -24.320312 4.765625 -37.539062 4.765625 -53 C 4.765625 -68.46875 10.492188 -81.722656 21.953125 -92.765625 C 33.410156 -103.804688 47.144531 -109.328125 63.15625 -109.328125 C 80 -109.328125 93.695312 -104.460938 104.25 -94.734375 C 114.8125 -85.003906 120.09375 -71.097656 120.09375 -53.015625 C 120.09375 -50.523438 120.023438 -48.863281 119.890625 -48.03125 Z M 43.890625 -68.328125 L 84.28125 -68.328125 C 83.445312 -73.847656 81.269531 -78.09375 77.75 -81.0625 C 74.226562 -84.03125 69.707031 -85.515625 64.1875 -85.515625 C 58.113281 -85.515625 53.28125 -83.925781 49.6875 -80.75 C 46.101562 -77.570312 44.171875 -73.429688 43.890625 -68.328125 Z M 43.890625 -68.328125 "/></g></g></g><g fill="#d4af37" fill-opacity="1"><g transform="translate(900.529735, 806.249911)"><g><path d="M 12.421875 0 L 12.421875 -178.078125 L 49.078125 -178.078125 L 49.078125 0 Z M 12.421875 0 "/></g></g></g><g fill="#d4af37" fill-opacity="1"><g transform="translate(633.234325, 865.328161)"><g><path d="M 15.546875 0.484375 C 12.691406 0.484375 10.238281 -0.125 8.1875 -1.34375 C 6.144531 -2.570312 4.570312 -4.28125 3.46875 -6.46875 C 2.363281 -8.664062 1.8125 -11.207031 1.8125 -14.09375 C 1.8125 -16.96875 2.363281 -19.507812 3.46875 -21.71875 C 4.570312 -23.925781 6.144531 -25.648438 8.1875 -26.890625 C 10.238281 -28.128906 12.691406 -28.75 15.546875 -28.75 C 18.929688 -28.75 21.707031 -27.90625 23.875 -26.21875 C 26.039062 -24.539062 27.394531 -22.179688 27.9375 -19.140625 L 22.25 -19.140625 C 21.894531 -20.671875 21.144531 -21.875 20 -22.75 C 18.863281 -23.625 17.351562 -24.0625 15.46875 -24.0625 C 12.851562 -24.0625 10.804688 -23.171875 9.328125 -21.390625 C 7.847656 -19.617188 7.109375 -17.1875 7.109375 -14.09375 C 7.109375 -11 7.847656 -8.566406 9.328125 -6.796875 C 10.804688 -5.035156 12.851562 -4.15625 15.46875 -4.15625 C 17.351562 -4.15625 18.863281 -4.566406 20 -5.390625 C 21.144531 -6.210938 21.894531 -7.347656 22.25 -8.796875 L 27.9375 -8.796875 C 27.394531 -5.890625 26.039062 -3.613281 23.875 -1.96875 C 21.707031 -0.332031 18.929688 0.484375 15.546875 0.484375 Z M 15.546875 0.484375 "/></g></g></g><g fill="#d4af37" fill-opacity="1"><g transform="translate(684.307883, 865.328161)"><g><path d="M 15.984375 0.484375 C 13.160156 0.484375 10.691406 -0.132812 8.578125 -1.375 C 6.460938 -2.613281 4.804688 -4.328125 3.609375 -6.515625 C 2.410156 -8.710938 1.8125 -11.25 1.8125 -14.125 C 1.8125 -17.007812 2.410156 -19.546875 3.609375 -21.734375 C 4.804688 -23.929688 6.460938 -25.648438 8.578125 -26.890625 C 10.691406 -28.128906 13.160156 -28.75 15.984375 -28.75 C 18.785156 -28.75 21.25 -28.128906 23.375 -26.890625 C 25.5 -25.648438 27.15625 -23.929688 28.34375 -21.734375 C 29.53125 -19.546875 30.125 -17.007812 30.125 -14.125 C 30.125 -11.25 29.53125 -8.710938 28.34375 -6.515625 C 27.15625 -4.328125 25.5 -2.613281 23.375 -1.375 C 21.25 -0.132812 18.785156 0.484375 15.984375 0.484375 Z M 15.984375 -4.15625 C 18.679688 -4.15625 20.828125 -5.039062 22.421875 -6.8125 C 24.023438 -8.59375 24.828125 -11.03125 24.828125 -14.125 C 24.828125 -17.226562 24.023438 -19.664062 22.421875 -21.4375 C 20.828125 -23.21875 18.679688 -24.109375 15.984375 -24.109375 C 13.296875 -24.109375 11.144531 -23.21875 9.53125 -21.4375 C 7.914062 -19.664062 7.109375 -17.226562 7.109375 -14.125 C 7.109375 -11.03125 7.914062 -8.59375 9.53125 -6.8125 C 11.144531 -5.039062 13.296875 -4.15625 15.984375 -4.15625 Z M 15.984375 -4.15625 "/></g></g></g><g fill="#d4af37" fill-opacity="1"><g transform="translate(737.561484, 865.328161)"><g><path d="M 0.921875 0 L 11.265625 -28.265625 L 17.078125 -28.265625 L 27.421875 0 L 21.921875 0 L 19.65625 -6.546875 L 8.640625 -6.546875 L 6.34375 0 Z M 10.046875 -10.578125 L 18.25 -10.578125 L 14.125 -22.328125 Z M 10.046875 -10.578125 "/></g></g></g><g fill="#d4af37" fill-opacity="1"><g transform="translate(787.181677, 865.328161)"><g><path d="M 15.546875 0.484375 C 12.691406 0.484375 10.238281 -0.125 8.1875 -1.34375 C 6.144531 -2.570312 4.570312 -4.28125 3.46875 -6.46875 C 2.363281 -8.664062 1.8125 -11.207031 1.8125 -14.09375 C 1.8125 -16.96875 2.363281 -19.507812 3.46875 -21.71875 C 4.570312 -23.925781 6.144531 -25.648438 8.1875 -26.890625 C 10.238281 -28.128906 12.691406 -28.75 15.546875 -28.75 C 18.929688 -28.75 21.707031 -27.90625 23.875 -26.21875 C 26.039062 -24.539062 27.394531 -22.179688 27.9375 -19.140625 L 22.25 -19.140625 C 21.894531 -20.671875 21.144531 -21.875 20 -22.75 C 18.863281 -23.625 17.351562 -24.0625 15.46875 -24.0625 C 12.851562 -24.0625 10.804688 -23.171875 9.328125 -21.390625 C 7.847656 -19.617188 7.109375 -17.1875 7.109375 -14.09375 C 7.109375 -11 7.847656 -8.566406 9.328125 -6.796875 C 10.804688 -5.035156 12.851562 -4.15625 15.46875 -4.15625 C 17.351562 -4.15625 18.863281 -4.566406 20 -5.390625 C 21.144531 -6.210938 21.894531 -7.347656 22.25 -8.796875 L 27.9375 -8.796875 C 27.394531 -5.890625 26.039062 -3.613281 23.875 -1.96875 C 21.707031 -0.332031 18.929688 0.484375 15.546875 0.484375 Z M 15.546875 0.484375 "/></g></g></g><g fill="#d4af37" fill-opacity="1"><g transform="translate(838.255235, 865.328161)"><g><path d="M 2.75 0 L 2.75 -28.265625 L 7.90625 -28.265625 L 7.90625 -16.515625 L 20.59375 -16.515625 L 20.59375 -28.265625 L 25.765625 -28.265625 L 25.765625 0 L 20.59375 0 L 20.59375 -12.3125 L 7.90625 -12.3125 L 7.90625 0 Z M 2.75 0 "/></g></g></g></svg>